<svg width="68" height="65" viewBox="0 0 68 65" fill="none" xmlns="http://www.w3.org/2000/svg">
<path d="M67.5615 0C67.5615 14.1783 57.7623 26.0651 44.5674 29.2637L46.9521 20.3672L43.2227 19.3672L41.4746 25.8916L34.5508 13.8984L31.207 15.8291L38.2471 28.0225L21.3623 18.2734L19.4316 21.6172L34.1475 30.1133H32.1719V30.1777H15.5713V34.0381H34.4775L19.4316 42.7246L21.3623 46.0684L38.25 36.3174L31.207 48.5176L34.5508 50.4473L41.5039 38.4033L43.2227 44.8184L46.9521 43.8193L44.3311 34.0381H64.2891C63.3226 50.9379 49.3138 64.3447 32.1719 64.3447C14.4038 64.3445 0 49.94 0 32.1719C0.000193403 14.4039 14.4039 0.000193415 32.1719 0H67.5615Z" fill="url(#paint0_linear_22_15)"/>
<defs>
<linearGradient id="paint0_linear_22_15" x1="79.9459" y1="-10.5525" x2="-13.4761" y2="54.4659" gradientUnits="userSpaceOnUse">
<stop stop-color="#00FFDB"/>
<stop offset="0.5" stop-color="#4064F3"/>
<stop offset="1" stop-color="#9F48FE"/>
</linearGradient>
</defs>
</svg>
