<svg width="250" height="65" viewBox="0 0 250 65" fill="none" xmlns="http://www.w3.org/2000/svg">
<path d="M146.355 20.1216V15.5361H147.599V20.1216H146.355ZM149.346 20.1216V17.4159C149.346 17.15 149.261 16.9443 149.09 16.7988C148.925 16.6469 148.719 16.5709 148.473 16.5709C148.308 16.5709 148.159 16.6057 148.026 16.6754C147.893 16.7386 147.789 16.8336 147.713 16.9602C147.637 17.0868 147.599 17.2387 147.599 17.4159L147.115 17.1785C147.115 16.8241 147.191 16.5171 147.343 16.2576C147.501 15.9981 147.713 15.7988 147.979 15.6595C148.245 15.5139 148.545 15.4412 148.881 15.4412C149.197 15.4412 149.485 15.5139 149.745 15.6595C150.004 15.7988 150.21 15.9981 150.362 16.2576C150.514 16.5108 150.59 16.8178 150.59 17.1785V20.1216H149.346ZM152.337 20.1216V17.4159C152.337 17.15 152.251 16.9443 152.08 16.7988C151.916 16.6469 151.71 16.5709 151.463 16.5709C151.305 16.5709 151.156 16.6057 151.017 16.6754C150.884 16.7386 150.78 16.8336 150.704 16.9602C150.628 17.0868 150.59 17.2387 150.59 17.4159L149.878 17.245C149.903 16.8779 150.001 16.5614 150.172 16.2956C150.343 16.0234 150.568 15.8146 150.846 15.669C151.125 15.5171 151.435 15.4412 151.776 15.4412C152.118 15.4412 152.425 15.5139 152.697 15.6595C152.969 15.7988 153.185 16.0013 153.343 16.2671C153.501 16.5329 153.58 16.8494 153.58 17.2165V20.1216H152.337Z" fill="#005AFF"/>
<path d="M142.693 20.2165C142.275 20.2165 141.898 20.1121 141.563 19.9032C141.228 19.6944 140.965 19.4096 140.775 19.0488C140.585 18.688 140.49 18.283 140.49 17.8336C140.49 17.3779 140.585 16.9697 140.775 16.6089C140.965 16.2481 141.228 15.9633 141.563 15.7545C141.898 15.5456 142.275 15.4412 142.693 15.4412C143.022 15.4412 143.316 15.5076 143.576 15.6405C143.835 15.7734 144.041 15.9602 144.193 16.2007C144.351 16.4348 144.436 16.7007 144.449 16.9981V18.6501C144.436 18.9539 144.351 19.2229 144.193 19.457C144.041 19.6912 143.835 19.8779 143.576 20.0172C143.316 20.1501 143.022 20.2165 142.693 20.2165ZM142.921 19.0678C143.269 19.0678 143.55 18.9539 143.766 18.726C143.981 18.4918 144.088 18.1912 144.088 17.8241C144.088 17.5836 144.038 17.3716 143.936 17.188C143.842 16.9981 143.705 16.8526 143.528 16.7513C143.357 16.6437 143.155 16.5899 142.921 16.5899C142.693 16.5899 142.49 16.6437 142.313 16.7513C142.142 16.8526 142.006 16.9981 141.905 17.188C141.81 17.3716 141.762 17.5836 141.762 17.8241C141.762 18.0709 141.81 18.2893 141.905 18.4792C142.006 18.6627 142.142 18.8083 142.313 18.9159C142.49 19.0172 142.693 19.0678 142.921 19.0678ZM144.022 20.1216V18.8874L144.221 17.7671L144.022 16.6659V15.5361H145.256V20.1216H144.022Z" fill="#005AFF"/>
<path d="M137.832 20.2165C137.351 20.2165 136.924 20.1152 136.55 19.9127C136.177 19.7038 135.879 19.419 135.658 19.0583C135.443 18.6975 135.335 18.2861 135.335 17.8241C135.335 17.3684 135.439 16.9633 135.648 16.6089C135.863 16.2481 136.155 15.9633 136.522 15.7544C136.889 15.5392 137.297 15.4316 137.746 15.4316C138.189 15.4316 138.579 15.5329 138.914 15.7354C139.256 15.9316 139.522 16.2038 139.712 16.5519C139.908 16.8937 140.006 17.2829 140.006 17.7196C140.006 17.8019 140 17.8874 139.987 17.976C139.981 18.0583 139.965 18.1532 139.939 18.2608L136.085 18.2703V17.3399L139.36 17.3304L138.857 17.7196C138.844 17.4475 138.794 17.2196 138.705 17.0361C138.623 16.8525 138.5 16.7133 138.335 16.6184C138.177 16.5171 137.981 16.4665 137.746 16.4665C137.5 16.4665 137.284 16.5234 137.101 16.6374C136.917 16.7449 136.775 16.9 136.674 17.1025C136.579 17.2988 136.531 17.5329 136.531 17.8051C136.531 18.0836 136.582 18.3272 136.683 18.5361C136.791 18.7386 136.943 18.8969 137.139 19.0108C137.335 19.1184 137.563 19.1722 137.822 19.1722C138.057 19.1722 138.269 19.1342 138.458 19.0583C138.648 18.976 138.813 18.8557 138.952 18.6975L139.683 19.4285C139.462 19.688 139.189 19.8842 138.867 20.0171C138.55 20.15 138.205 20.2165 137.832 20.2165Z" fill="#005AFF"/>
<path d="M131.818 20.1216V15.5361H133.062V20.1216H131.818ZM133.062 17.5868L132.578 17.264C132.635 16.7007 132.799 16.2576 133.072 15.9348C133.344 15.6057 133.736 15.4412 134.249 15.4412C134.47 15.4412 134.67 15.4791 134.847 15.5551C135.024 15.6247 135.185 15.7418 135.331 15.9064L134.553 16.7988C134.483 16.7228 134.398 16.6659 134.296 16.6279C134.201 16.5899 134.091 16.5709 133.964 16.5709C133.698 16.5709 133.48 16.6564 133.309 16.8273C133.144 16.9918 133.062 17.245 133.062 17.5868Z" fill="#005AFF"/>
<path d="M125.742 20.1216V18.9729H127.442C127.872 18.9729 128.249 18.8843 128.571 18.7071C128.894 18.5235 129.144 18.2672 129.321 17.9381C129.505 17.6089 129.597 17.2197 129.597 16.7703C129.597 16.3336 129.505 15.9539 129.321 15.6311C129.138 15.302 128.885 15.0488 128.562 14.8716C128.239 14.688 127.866 14.5963 127.442 14.5963H125.714V13.4475H127.461C127.954 13.4475 128.41 13.5298 128.828 13.6943C129.252 13.8589 129.619 14.0931 129.929 14.3969C130.246 14.6944 130.489 15.0456 130.66 15.4507C130.837 15.8558 130.926 16.2988 130.926 16.7798C130.926 17.2608 130.837 17.7071 130.66 18.1184C130.489 18.5235 130.249 18.878 129.939 19.1818C129.628 19.4792 129.261 19.7102 128.837 19.8748C128.42 20.0394 127.967 20.1216 127.48 20.1216H125.742ZM124.859 20.1216V13.4475H126.151V20.1216H124.859Z" fill="#005AFF"/>
<path d="M122.38 20.1216V13.2576H123.624V20.1216H122.38Z" fill="#005AFF"/>
<path d="M118.717 20.2165C118.299 20.2165 117.923 20.1121 117.587 19.9032C117.252 19.6944 116.989 19.4096 116.799 19.0488C116.61 18.688 116.515 18.283 116.515 17.8336C116.515 17.3779 116.61 16.9697 116.799 16.6089C116.989 16.2481 117.252 15.9633 117.587 15.7545C117.923 15.5456 118.299 15.4412 118.717 15.4412C119.046 15.4412 119.341 15.5076 119.6 15.6405C119.86 15.7734 120.065 15.9602 120.217 16.2007C120.375 16.4348 120.461 16.7007 120.474 16.9981V18.6501C120.461 18.9539 120.375 19.2229 120.217 19.457C120.065 19.6912 119.86 19.8779 119.6 20.0172C119.341 20.1501 119.046 20.2165 118.717 20.2165ZM118.945 19.0678C119.293 19.0678 119.575 18.9539 119.79 18.726C120.005 18.4918 120.113 18.1912 120.113 17.8241C120.113 17.5836 120.062 17.3716 119.961 17.188C119.866 16.9981 119.73 16.8526 119.553 16.7513C119.382 16.6437 119.179 16.5899 118.945 16.5899C118.717 16.5899 118.515 16.6437 118.337 16.7513C118.167 16.8526 118.03 16.9981 117.929 17.188C117.834 17.3716 117.787 17.5836 117.787 17.8241C117.787 18.0709 117.834 18.2893 117.929 18.4792C118.03 18.6627 118.167 18.8083 118.337 18.9159C118.515 19.0172 118.717 19.0678 118.945 19.0678ZM120.046 20.1216V18.8874L120.246 17.7671L120.046 16.6659V15.5361H121.281V20.1216H120.046Z" fill="#005AFF"/>
<path d="M113.894 20.1217V13.6279H115.138V20.1217H113.894ZM112.821 16.628V15.5362H116.211V16.628H112.821Z" fill="#005AFF"/>
<path d="M110.865 20.1217V15.5362H112.118V20.1217H110.865ZM111.492 14.7956C111.289 14.7956 111.121 14.7292 110.988 14.5963C110.856 14.457 110.789 14.2861 110.789 14.0836C110.789 13.8874 110.856 13.7197 110.988 13.5804C111.121 13.4412 111.289 13.3716 111.492 13.3716C111.7 13.3716 111.868 13.4412 111.995 13.5804C112.128 13.7197 112.194 13.8874 112.194 14.0836C112.194 14.2861 112.128 14.457 111.995 14.5963C111.868 14.7292 111.7 14.7956 111.492 14.7956Z" fill="#005AFF"/>
<path d="M107.285 22.1533C106.798 22.1533 106.367 22.0647 105.994 21.8874C105.62 21.7166 105.323 21.4729 105.101 21.1564L105.889 20.3684C106.067 20.5773 106.263 20.7355 106.478 20.8431C106.7 20.957 106.965 21.014 107.276 21.014C107.662 21.014 107.965 20.9159 108.187 20.7197C108.415 20.5235 108.529 20.2513 108.529 19.9032V18.7545L108.738 17.7482L108.538 16.7418V15.5361H109.772V19.8843C109.772 20.34 109.665 20.7355 109.45 21.071C109.241 21.4127 108.95 21.6786 108.576 21.8685C108.203 22.0583 107.772 22.1533 107.285 22.1533ZM107.228 19.9982C106.817 19.9982 106.446 19.9001 106.117 19.7039C105.788 19.5013 105.529 19.226 105.339 18.8779C105.155 18.5298 105.063 18.1406 105.063 17.7102C105.063 17.2798 105.155 16.8937 105.339 16.5519C105.529 16.2102 105.788 15.9412 106.117 15.745C106.446 15.5424 106.817 15.4412 107.228 15.4412C107.57 15.4412 107.87 15.5076 108.13 15.6405C108.396 15.7734 108.605 15.957 108.757 16.1912C108.908 16.419 108.991 16.688 109.003 16.9981V18.4412C108.991 18.745 108.905 19.0172 108.747 19.2577C108.595 19.4918 108.386 19.6754 108.12 19.8083C107.861 19.9349 107.564 19.9982 107.228 19.9982ZM107.475 18.8684C107.703 18.8684 107.899 18.8209 108.064 18.726C108.234 18.6247 108.367 18.4887 108.462 18.3178C108.557 18.1406 108.605 17.9412 108.605 17.7197C108.605 17.4918 108.557 17.2924 108.462 17.1216C108.367 16.9507 108.234 16.8178 108.064 16.7228C107.899 16.6216 107.703 16.5709 107.475 16.5709C107.247 16.5709 107.048 16.6216 106.877 16.7228C106.706 16.8178 106.573 16.9538 106.478 17.1311C106.383 17.3019 106.336 17.4981 106.336 17.7197C106.336 17.9349 106.383 18.1311 106.478 18.3083C106.573 18.4792 106.706 18.6152 106.877 18.7165C107.048 18.8178 107.247 18.8684 107.475 18.8684Z" fill="#005AFF"/>
<path d="M103.012 20.1217V15.5362H104.266V20.1217H103.012ZM103.639 14.7956C103.437 14.7956 103.269 14.7292 103.136 14.5963C103.003 14.457 102.937 14.2861 102.937 14.0836C102.937 13.8874 103.003 13.7197 103.136 13.5804C103.269 13.4412 103.437 13.3716 103.639 13.3716C103.848 13.3716 104.016 13.4412 104.142 13.5804C104.275 13.7197 104.342 13.8874 104.342 14.0836C104.342 14.2861 104.275 14.457 104.142 14.5963C104.016 14.7292 103.848 14.7956 103.639 14.7956Z" fill="#005AFF"/>
<path d="M96.9357 20.1216V18.9729H98.635C99.0654 18.9729 99.442 18.8843 99.7648 18.7071C100.088 18.5235 100.338 18.2672 100.515 17.9381C100.698 17.6089 100.79 17.2197 100.79 16.7703C100.79 16.3336 100.698 15.9539 100.515 15.6311C100.331 15.302 100.078 15.0488 99.7553 14.8716C99.4325 14.688 99.0591 14.5963 98.635 14.5963H96.9072V13.4475H98.654C99.1477 13.4475 99.6034 13.5298 100.021 13.6943C100.445 13.8589 100.812 14.0931 101.122 14.3969C101.439 14.6944 101.683 15.0456 101.853 15.4507C102.031 15.8558 102.119 16.2988 102.119 16.7798C102.119 17.2608 102.031 17.7071 101.853 18.1184C101.683 18.5235 101.442 18.878 101.132 19.1818C100.822 19.4792 100.455 19.7102 100.031 19.8748C99.6129 20.0394 99.1604 20.1216 98.673 20.1216H96.9357ZM96.0527 20.1216V13.4475H97.3439V20.1216H96.0527Z" fill="#005AFF"/>
<path d="M93.7313 16.4718C93.7317 17.2082 93.5869 17.9374 93.3054 18.6179C93.0238 19.2983 92.6108 19.9166 92.0902 20.4374C91.5695 20.9581 90.9514 21.3712 90.271 21.653C89.5906 21.9347 88.8614 22.0797 88.125 22.0795V18.3419C88.6119 18.3285 89.0744 18.1257 89.414 17.7765C89.7536 17.4274 89.9437 16.9595 89.9437 16.4725C89.9437 15.9854 89.7536 15.5175 89.414 15.1684C89.0744 14.8192 88.6119 14.6164 88.125 14.603V10.864C89.612 10.8644 91.038 11.4554 92.0894 12.507C93.1407 13.5586 93.7313 14.9847 93.7313 16.4718Z" fill="#005AFF"/>
<path d="M86.2535 20.2107H84.3848V22.0795H86.2535V20.2107Z" fill="#005AFF"/>
<path d="M84.3844 18.342H82.5156V20.2108H84.3844V18.342Z" fill="#005AFF"/>
<path d="M88.1237 14.603H84.3848V18.342H88.1237V14.603Z" fill="#005AFF"/>
<path d="M84.3844 12.7341H82.5156V14.6029H84.3844V12.7341Z" fill="#005AFF"/>
<path d="M86.2535 10.8655H84.3848V12.7343H86.2535V10.8655Z" fill="#005AFF"/>
<path d="M236.753 53.2966C234.824 53.2966 233.342 52.8143 232.307 51.8497C231.295 50.885 230.789 49.6381 230.789 48.1088C230.789 47.0265 231.036 46.1442 231.53 45.4619C232.048 44.7561 232.718 44.2032 233.542 43.8032C234.365 43.3797 235.248 43.0739 236.189 42.8856L243.423 41.3681V44.2267L237.741 45.6384C237.13 45.7795 236.636 46.0266 236.259 46.3795C235.906 46.7089 235.73 47.1677 235.73 47.7559C235.73 48.4852 235.977 49.0499 236.471 49.4498C236.989 49.8263 237.647 50.0145 238.447 50.0145C239.506 50.0145 240.365 49.7086 241.024 49.0969C241.706 48.4617 242.047 47.65 242.047 46.6618V41.0152C242.047 40.0976 241.788 39.3918 241.271 38.8977C240.777 38.4036 240.035 38.1566 239.047 38.1566C238.106 38.1566 237.365 38.3684 236.824 38.7919C236.283 39.2153 235.977 39.8624 235.906 40.7329H231.036C231.154 38.7801 231.954 37.2626 233.436 36.1803C234.918 35.098 236.871 34.5569 239.294 34.5569C241.812 34.5569 243.717 35.1451 245.011 36.3215C246.306 37.4743 246.953 39.0859 246.953 41.1564V52.8731H242.4V48.6381L242.965 48.8852C242.659 50.2733 241.976 51.3556 240.918 52.132C239.859 52.9084 238.471 53.2966 236.753 53.2966Z" fill="url(#paint0_linear_22_2)"/>
<path d="M223.305 52.8732V28.4163H228.21V52.8732H223.305Z" fill="url(#paint1_linear_22_2)"/>
<path d="M210.146 53.2966C208.217 53.2966 206.734 52.8143 205.699 51.8497C204.687 50.885 204.182 49.6381 204.182 48.1088C204.182 47.0265 204.429 46.1442 204.923 45.4619C205.44 44.7561 206.111 44.2032 206.934 43.8032C207.758 43.3797 208.64 43.0739 209.581 42.8856L216.816 41.3681V44.2267L211.134 45.6384C210.522 45.7795 210.028 46.0266 209.652 46.3795C209.299 46.7089 209.122 47.1677 209.122 47.7559C209.122 48.4852 209.369 49.0499 209.864 49.4498C210.381 49.8263 211.04 50.0145 211.84 50.0145C212.899 50.0145 213.757 49.7086 214.416 49.0969C215.098 48.4617 215.44 47.65 215.44 46.6618V41.0152C215.44 40.0976 215.181 39.3918 214.663 38.8977C214.169 38.4036 213.428 38.1566 212.44 38.1566C211.499 38.1566 210.758 38.3684 210.216 38.7919C209.675 39.2153 209.369 39.8624 209.299 40.7329H204.429C204.546 38.7801 205.346 37.2626 206.828 36.1803C208.311 35.098 210.264 34.5569 212.687 34.5569C215.204 34.5569 217.11 35.1451 218.404 36.3215C219.698 37.4743 220.345 39.0859 220.345 41.1564V52.8731H215.793V48.6381L216.357 48.8852C216.051 50.2733 215.369 51.3556 214.31 52.132C213.252 52.9084 211.863 53.2966 210.146 53.2966Z" fill="url(#paint2_linear_22_2)"/>
<path d="M191.561 34.9805L195.725 52.1674H195.161L198.76 34.9805H203.595L199.466 52.8732H191.808L187.926 37.098H189.514L185.667 52.8732H178.009L173.88 34.9805H178.891L182.491 52.1674H181.926L186.126 34.9805H191.561Z" fill="url(#paint3_linear_22_2)"/>
<path d="M162.549 53.2966C160.62 53.2966 159.138 52.8143 158.102 51.8497C157.091 50.885 156.585 49.6381 156.585 48.1088C156.585 47.0265 156.832 46.1442 157.326 45.4619C157.844 44.7561 158.514 44.2032 159.338 43.8032C160.161 43.3797 161.043 43.0739 161.985 42.8856L169.219 41.3681V44.2267L163.537 45.6384C162.926 45.7795 162.432 46.0266 162.055 46.3795C161.702 46.7089 161.526 47.1677 161.526 47.7559C161.526 48.4852 161.773 49.0499 162.267 49.4498C162.784 49.8263 163.443 50.0145 164.243 50.0145C165.302 50.0145 166.161 49.7086 166.819 49.0969C167.502 48.4617 167.843 47.65 167.843 46.6618V41.0152C167.843 40.0976 167.584 39.3918 167.066 38.8977C166.572 38.4036 165.831 38.1566 164.843 38.1566C163.902 38.1566 163.161 38.3684 162.62 38.7919C162.079 39.2153 161.773 39.8624 161.702 40.7329H156.832C156.95 38.7801 157.75 37.2626 159.232 36.1803C160.714 35.098 162.667 34.5569 165.09 34.5569C167.608 34.5569 169.513 35.1451 170.807 36.3215C172.101 37.4743 172.748 39.0859 172.748 41.1564V52.8731H168.196V48.6381L168.76 48.8852C168.455 50.2733 167.772 51.3556 166.714 52.132C165.655 52.9084 164.267 53.2966 162.549 53.2966Z" fill="url(#paint4_linear_22_2)"/>
<path d="M145.068 52.873V34.9803H149.727V39.5682H149.339C149.668 38.0624 150.244 36.886 151.068 36.039C151.891 35.1921 153.174 34.7686 154.915 34.7686H156.115V39.0388H154.668C152.997 39.0388 151.797 39.427 151.068 40.2034C150.339 40.9563 149.974 42.0974 149.974 43.6267V52.873H145.068Z" fill="url(#paint5_linear_22_2)"/>
<path d="M137.751 52.8732L130.552 43.4151L137.645 34.9805H143.468L135.281 44.2621L135.457 42.3211L143.821 52.8732H137.751ZM125.682 52.8732V28.4163H130.587V52.8732H125.682Z" fill="url(#paint6_linear_22_2)"/>
<path d="M112.523 53.2966C110.594 53.2966 109.111 52.8143 108.076 51.8497C107.064 50.885 106.559 49.6381 106.559 48.1088C106.559 47.0265 106.806 46.1442 107.3 45.4619C107.817 44.7561 108.488 44.2032 109.311 43.8032C110.135 43.3797 111.017 43.0739 111.958 42.8856L119.193 41.3681V44.2267L113.511 45.6384C112.899 45.7795 112.405 46.0266 112.029 46.3795C111.676 46.7089 111.499 47.1677 111.499 47.7559C111.499 48.4852 111.746 49.0499 112.241 49.4498C112.758 49.8263 113.417 50.0145 114.217 50.0145C115.276 50.0145 116.134 49.7086 116.793 49.0969C117.475 48.4617 117.817 47.65 117.817 46.6618V41.0152C117.817 40.0976 117.558 39.3918 117.04 38.8977C116.546 38.4036 115.805 38.1566 114.817 38.1566C113.876 38.1566 113.135 38.3684 112.593 38.7919C112.052 39.2153 111.746 39.8624 111.676 40.7329H106.806C106.923 38.7801 107.723 37.2626 109.205 36.1803C110.688 35.098 112.64 34.5569 115.064 34.5569C117.581 34.5569 119.487 35.1451 120.781 36.3215C122.075 37.4743 122.722 39.0859 122.722 41.1564V52.8731H118.169V48.6381L118.734 48.8852C118.428 50.2733 117.746 51.3556 116.687 52.132C115.628 52.9084 114.24 53.2966 112.523 53.2966Z" fill="url(#paint7_linear_22_2)"/>
<path d="M82.5156 40.38C82.5156 37.8625 82.9979 35.7097 83.9626 33.9216C84.9507 32.11 86.3506 30.7219 88.1622 29.7572C89.9739 28.7926 92.0914 28.3103 94.5147 28.3103C96.4204 28.3103 98.1262 28.6279 99.6319 29.2632C101.138 29.8749 102.361 30.7925 103.302 32.0159C104.243 33.2393 104.808 34.7686 104.996 36.6038H99.7731C99.6084 35.3098 99.032 34.2981 98.0438 33.5687C97.0557 32.8394 95.7969 32.4747 94.2677 32.4747C92.2208 32.4747 90.6209 33.1452 89.468 34.4863C88.3152 35.8274 87.7387 37.7449 87.7387 40.2388V41.5093C87.7387 44.1208 88.3387 46.0736 89.5386 47.3676C90.762 48.6381 92.3502 49.2734 94.3029 49.2734C95.8793 49.2734 97.1615 48.8852 98.1497 48.1088C99.1379 47.3088 99.7261 46.2266 99.9143 44.862H105.067C104.902 46.6501 104.349 48.1911 103.408 49.4851C102.467 50.7556 101.22 51.732 99.6672 52.4143C98.1144 53.0966 96.3263 53.4378 94.3029 53.4378C91.8796 53.4378 89.7739 52.9672 87.9858 52.0261C86.2212 51.085 84.8684 49.7322 83.9273 47.9676C82.9862 46.203 82.5156 44.0973 82.5156 41.6504V40.38Z" fill="url(#paint8_linear_22_2)"/>
<path d="M67.5615 0C67.5615 14.1783 57.7623 26.0651 44.5674 29.2637L46.9521 20.3672L43.2227 19.3672L41.4746 25.8916L34.5508 13.8984L31.207 15.8291L38.2471 28.0225L21.3623 18.2734L19.4316 21.6172L34.1475 30.1133H32.1719V30.1777H15.5713V34.0381H34.4775L19.4316 42.7246L21.3623 46.0684L38.25 36.3174L31.207 48.5176L34.5508 50.4473L41.5039 38.4033L43.2227 44.8184L46.9521 43.8193L44.3311 34.0381H64.2891C63.3226 50.9379 49.3138 64.3447 32.1719 64.3447C14.4038 64.3445 0 49.94 0 32.1719C0.000193403 14.4039 14.4039 0.000193415 32.1719 0H67.5615Z" fill="url(#paint9_linear_22_2)"/>
<defs>
<linearGradient id="paint0_linear_22_2" x1="81.2799" y1="40.8731" x2="249.28" y2="40.8731" gradientUnits="userSpaceOnUse">
<stop stop-color="#292F4D"/>
<stop offset="1" stop-color="#2B2E53"/>
</linearGradient>
<linearGradient id="paint1_linear_22_2" x1="81.2798" y1="40.8732" x2="249.28" y2="40.8732" gradientUnits="userSpaceOnUse">
<stop stop-color="#292F4D"/>
<stop offset="1" stop-color="#2B2E53"/>
</linearGradient>
<linearGradient id="paint2_linear_22_2" x1="81.2803" y1="40.8731" x2="249.28" y2="40.8731" gradientUnits="userSpaceOnUse">
<stop stop-color="#292F4D"/>
<stop offset="1" stop-color="#2B2E53"/>
</linearGradient>
<linearGradient id="paint3_linear_22_2" x1="81.28" y1="40.8732" x2="249.28" y2="40.8732" gradientUnits="userSpaceOnUse">
<stop stop-color="#292F4D"/>
<stop offset="1" stop-color="#2B2E53"/>
</linearGradient>
<linearGradient id="paint4_linear_22_2" x1="81.2801" y1="40.8731" x2="249.28" y2="40.8731" gradientUnits="userSpaceOnUse">
<stop stop-color="#292F4D"/>
<stop offset="1" stop-color="#2B2E53"/>
</linearGradient>
<linearGradient id="paint5_linear_22_2" x1="81.28" y1="40.873" x2="249.28" y2="40.873" gradientUnits="userSpaceOnUse">
<stop stop-color="#292F4D"/>
<stop offset="1" stop-color="#2B2E53"/>
</linearGradient>
<linearGradient id="paint6_linear_22_2" x1="81.2801" y1="40.8732" x2="249.28" y2="40.8732" gradientUnits="userSpaceOnUse">
<stop stop-color="#292F4D"/>
<stop offset="1" stop-color="#2B2E53"/>
</linearGradient>
<linearGradient id="paint7_linear_22_2" x1="81.2806" y1="40.8731" x2="249.281" y2="40.8731" gradientUnits="userSpaceOnUse">
<stop stop-color="#292F4D"/>
<stop offset="1" stop-color="#2B2E53"/>
</linearGradient>
<linearGradient id="paint8_linear_22_2" x1="81.2804" y1="40.8731" x2="249.28" y2="40.8731" gradientUnits="userSpaceOnUse">
<stop stop-color="#292F4D"/>
<stop offset="1" stop-color="#2B2E53"/>
</linearGradient>
<linearGradient id="paint9_linear_22_2" x1="79.9459" y1="-10.5525" x2="-13.4761" y2="54.4659" gradientUnits="userSpaceOnUse">
<stop stop-color="#00FFDB"/>
<stop offset="0.5" stop-color="#4064F3"/>
<stop offset="1" stop-color="#9F48FE"/>
</linearGradient>
</defs>
</svg>
